%TF.GenerationSoftware,KiCad,Pcbnew,(6.0.2)*%
%TF.CreationDate,2022-04-11T13:37:05+01:00*%
%TF.ProjectId,v2,76322e6b-6963-4616-945f-706362585858,rev?*%
%TF.SameCoordinates,Original*%
%TF.FileFunction,Soldermask,Bot*%
%TF.FilePolarity,Negative*%
%FSLAX46Y46*%
G04 Gerber Fmt 4.6, Leading zero omitted, Abs format (unit mm)*
G04 Created by KiCad (PCBNEW (6.0.2)) date 2022-04-11 13:37:05*
%MOMM*%
%LPD*%
G01*
G04 APERTURE LIST*
G04 Aperture macros list*
%AMRoundRect*
0 Rectangle with rounded corners*
0 $1 Rounding radius*
0 $2 $3 $4 $5 $6 $7 $8 $9 X,Y pos of 4 corners*
0 Add a 4 corners polygon primitive as box body*
4,1,4,$2,$3,$4,$5,$6,$7,$8,$9,$2,$3,0*
0 Add four circle primitives for the rounded corners*
1,1,$1+$1,$2,$3*
1,1,$1+$1,$4,$5*
1,1,$1+$1,$6,$7*
1,1,$1+$1,$8,$9*
0 Add four rect primitives between the rounded corners*
20,1,$1+$1,$2,$3,$4,$5,0*
20,1,$1+$1,$4,$5,$6,$7,0*
20,1,$1+$1,$6,$7,$8,$9,0*
20,1,$1+$1,$8,$9,$2,$3,0*%
%AMFreePoly0*
4,1,20,0.000000,0.744959,0.073905,0.744508,0.209726,0.703889,0.328688,0.626782,0.421226,0.519385,0.479903,0.390333,0.500000,0.250000,0.500000,-0.250000,0.499851,-0.262216,0.476331,-0.402017,0.414519,-0.529596,0.319384,-0.634700,0.198574,-0.708877,0.061801,-0.746166,0.000000,-0.745033,0.000000,-0.750000,-0.550000,-0.750000,-0.550000,0.750000,0.000000,0.750000,0.000000,0.744959,
0.000000,0.744959,$1*%
G04 Aperture macros list end*
%ADD10C,5.000000*%
%ADD11C,3.000000*%
%ADD12R,4.000000X2.000000*%
%ADD13R,2.000000X4.000000*%
%ADD14RoundRect,0.200000X0.400000X-0.250000X0.400000X0.250000X-0.400000X0.250000X-0.400000X-0.250000X0*%
%ADD15R,1.200000X0.900000*%
%ADD16R,0.300000X1.150000*%
%ADD17O,1.000000X1.600000*%
%ADD18O,1.000000X2.100000*%
%ADD19RoundRect,0.500000X0.000000X1.000000X0.000000X1.000000X0.000000X-1.000000X0.000000X-1.000000X0*%
%ADD20R,1.000000X3.000000*%
%ADD21RoundRect,0.500000X0.500000X1.000000X-0.500000X1.000000X-0.500000X-1.000000X0.500000X-1.000000X0*%
%ADD22R,1.500000X1.000000*%
%ADD23FreePoly0,270.000000*%
%ADD24FreePoly0,90.000000*%
%ADD25RoundRect,0.200000X0.800000X0.800000X-0.800000X0.800000X-0.800000X-0.800000X0.800000X-0.800000X0*%
%ADD26R,1.000000X1.500000*%
%ADD27FreePoly0,180.000000*%
G04 APERTURE END LIST*
D10*
%TO.C,SW6*%
X28937500Y-57212500D03*
D11*
X33337500Y-61912500D03*
X26337500Y-62962500D03*
%TD*%
D12*
%TO.C,J1*%
X24787500Y-29637500D03*
X30787500Y-29637500D03*
X36787500Y-29637500D03*
X42787500Y-29637500D03*
X48787500Y-29637500D03*
%TD*%
D10*
%TO.C,SW4*%
X86087500Y-38162500D03*
D11*
X90487500Y-42862500D03*
X83487500Y-43912500D03*
%TD*%
D13*
%TO.C,J5*%
X20412500Y-95987500D03*
X20412500Y-101987500D03*
X20412500Y-107987500D03*
X20412500Y-113987500D03*
X20412500Y-119987500D03*
%TD*%
%TO.C,J9*%
X113662500Y-95987500D03*
X113662500Y-101987500D03*
X113662500Y-107987500D03*
X113662500Y-113987500D03*
X113662500Y-119987500D03*
%TD*%
D10*
%TO.C,SW10*%
X105137500Y-57212500D03*
D11*
X109537500Y-61912500D03*
X102537500Y-62962500D03*
%TD*%
D13*
%TO.C,J7*%
X113662500Y-32987500D03*
X113662500Y-38987500D03*
X113662500Y-44987500D03*
X113662500Y-50987500D03*
X113662500Y-56987500D03*
%TD*%
D10*
%TO.C,SW9*%
X86087500Y-57212500D03*
D11*
X90487500Y-61912500D03*
X83487500Y-62962500D03*
%TD*%
D10*
%TO.C,H4*%
X38462500Y-47687500D03*
%TD*%
%TO.C,H3*%
X95612500Y-47687500D03*
%TD*%
%TO.C,SW2*%
X47987500Y-38162500D03*
D11*
X52387500Y-42862500D03*
X45387500Y-43912500D03*
%TD*%
D12*
%TO.C,J4*%
X78787500Y-122862500D03*
X84787500Y-122862500D03*
X90787500Y-122862500D03*
X96787500Y-122862500D03*
X102787500Y-122862500D03*
%TD*%
D10*
%TO.C,SW5*%
X105137500Y-38162500D03*
D11*
X109537500Y-42862500D03*
X102537500Y-43912500D03*
%TD*%
D10*
%TO.C,SW21*%
X28937500Y-114362500D03*
D11*
X33337500Y-119062500D03*
X26337500Y-120112500D03*
%TD*%
D13*
%TO.C,J8*%
X113662500Y-64362500D03*
X113662500Y-70362500D03*
X113662500Y-76362500D03*
X113662500Y-82362500D03*
X113662500Y-88362500D03*
%TD*%
D12*
%TO.C,J3*%
X78787500Y-29637500D03*
X84787500Y-29637500D03*
X90787500Y-29637500D03*
X96787500Y-29637500D03*
X102787500Y-29637500D03*
%TD*%
D10*
%TO.C,SW22*%
X47987500Y-114362500D03*
D11*
X52387500Y-119062500D03*
X45387500Y-120112500D03*
%TD*%
D10*
%TO.C,SW13*%
X67037500Y-76262500D03*
D11*
X71437500Y-80962500D03*
X64437500Y-82012500D03*
%TD*%
D10*
%TO.C,SW1*%
X28937500Y-38162500D03*
D11*
X33337500Y-42862500D03*
X26337500Y-43912500D03*
%TD*%
D13*
%TO.C,J10*%
X20412500Y-32987500D03*
X20412500Y-38987500D03*
X20412500Y-44987500D03*
X20412500Y-50987500D03*
X20412500Y-56987500D03*
%TD*%
D10*
%TO.C,SW14*%
X86087500Y-76262500D03*
D11*
X90487500Y-80962500D03*
X83487500Y-82012500D03*
%TD*%
D10*
%TO.C,SW19*%
X86087500Y-95312500D03*
D11*
X90487500Y-100012500D03*
X83487500Y-101062500D03*
%TD*%
D10*
%TO.C,SW17*%
X47987500Y-95312500D03*
D11*
X52387500Y-100012500D03*
X45387500Y-101062500D03*
%TD*%
D10*
%TO.C,H2*%
X95612500Y-104837500D03*
%TD*%
%TO.C,SW15*%
X105137500Y-76262500D03*
D11*
X109537500Y-80962500D03*
X102537500Y-82012500D03*
%TD*%
D10*
%TO.C,SW16*%
X28937500Y-95312500D03*
D11*
X33337500Y-100012500D03*
X26337500Y-101062500D03*
%TD*%
D10*
%TO.C,SW24*%
X86087500Y-114362500D03*
D11*
X90487500Y-119062500D03*
X83487500Y-120112500D03*
%TD*%
D10*
%TO.C,H1*%
X38462500Y-104837500D03*
%TD*%
D12*
%TO.C,J2*%
X24787500Y-122862500D03*
X30787500Y-122862500D03*
X36787500Y-122862500D03*
X42787500Y-122862500D03*
X48787500Y-122862500D03*
%TD*%
D10*
%TO.C,SW20*%
X105137500Y-95312500D03*
D11*
X109537500Y-100012500D03*
X102537500Y-101062500D03*
%TD*%
D10*
%TO.C,SW23*%
X67037500Y-114362500D03*
D11*
X71437500Y-119062500D03*
X64437500Y-120112500D03*
%TD*%
D10*
%TO.C,SW18*%
X67037500Y-95312500D03*
D11*
X71437500Y-100012500D03*
X64437500Y-101062500D03*
%TD*%
D10*
%TO.C,SW3*%
X67037500Y-38162500D03*
D11*
X71437500Y-42862500D03*
X64437500Y-43912500D03*
%TD*%
D10*
%TO.C,SW25*%
X105137500Y-114362500D03*
D11*
X109537500Y-119062500D03*
X102537500Y-120112500D03*
%TD*%
D10*
%TO.C,SW7*%
X47987500Y-57212500D03*
D11*
X52387500Y-61912500D03*
X45387500Y-62962500D03*
%TD*%
D10*
%TO.C,SW11*%
X28937500Y-76262500D03*
D11*
X33337500Y-80962500D03*
X26337500Y-82012500D03*
%TD*%
D10*
%TO.C,SW12*%
X47987500Y-76262500D03*
D11*
X52387500Y-80962500D03*
X45387500Y-82012500D03*
%TD*%
D13*
%TO.C,J6*%
X20412500Y-64362500D03*
X20412500Y-70362500D03*
X20412500Y-76362500D03*
X20412500Y-82362500D03*
X20412500Y-88362500D03*
%TD*%
D10*
%TO.C,SW8*%
X67037500Y-57212500D03*
D11*
X71437500Y-61912500D03*
X64437500Y-62962500D03*
%TD*%
D14*
%TO.C,D9*%
X80962500Y-56481250D03*
D15*
X80962500Y-53181250D03*
%TD*%
D14*
%TO.C,D7*%
X42862500Y-56481250D03*
D15*
X42862500Y-53181250D03*
%TD*%
D16*
%TO.C,J11*%
X54962500Y-34922500D03*
X55762500Y-34922500D03*
X57062500Y-34922500D03*
X58062500Y-34922500D03*
X58562500Y-34922500D03*
X59562500Y-34922500D03*
X60862500Y-34922500D03*
X61662500Y-34922500D03*
X61362500Y-34922500D03*
X60562500Y-34922500D03*
X60062500Y-34922500D03*
X59062500Y-34922500D03*
X57562500Y-34922500D03*
X56562500Y-34922500D03*
X56062500Y-34922500D03*
X55262500Y-34922500D03*
D17*
X62632500Y-30177500D03*
D18*
X53992500Y-34357500D03*
D17*
X53992500Y-30177500D03*
D18*
X62632500Y-34357500D03*
%TD*%
D14*
%TO.C,D17*%
X42862500Y-94581250D03*
D15*
X42862500Y-91281250D03*
%TD*%
D14*
%TO.C,D11*%
X23812500Y-75531250D03*
D15*
X23812500Y-72231250D03*
%TD*%
D19*
%TO.C,J12*%
X61912500Y-47237500D03*
D20*
X63912500Y-47237500D03*
X65912500Y-47237500D03*
X67912500Y-47237500D03*
X69912500Y-47237500D03*
D21*
X72412500Y-47237500D03*
%TD*%
D14*
%TO.C,D22*%
X42862500Y-113631250D03*
D15*
X42862500Y-110331250D03*
%TD*%
D14*
%TO.C,D5*%
X100012500Y-37431250D03*
D15*
X100012500Y-34131250D03*
%TD*%
D14*
%TO.C,D1*%
X23812500Y-37431250D03*
D15*
X23812500Y-34131250D03*
%TD*%
D14*
%TO.C,D21*%
X23812500Y-113631250D03*
D15*
X23812500Y-110331250D03*
%TD*%
D14*
%TO.C,D12*%
X42862500Y-75531250D03*
D15*
X42862500Y-72231250D03*
%TD*%
D14*
%TO.C,D20*%
X100012500Y-94581250D03*
D15*
X100012500Y-91281250D03*
%TD*%
D22*
%TO.C,JP3*%
X56412500Y-83937500D03*
X56412500Y-85237500D03*
D23*
X56412500Y-86537500D03*
%TD*%
D14*
%TO.C,D3*%
X70962500Y-36037500D03*
D15*
X70962500Y-32737500D03*
%TD*%
D14*
%TO.C,D15*%
X100012500Y-75531250D03*
D15*
X100012500Y-72231250D03*
%TD*%
D14*
%TO.C,D23*%
X61912500Y-113631250D03*
D15*
X61912500Y-110331250D03*
%TD*%
D14*
%TO.C,D18*%
X61912500Y-94581250D03*
D15*
X61912500Y-91281250D03*
%TD*%
D14*
%TO.C,D4*%
X80962500Y-37431250D03*
D15*
X80962500Y-34131250D03*
%TD*%
D22*
%TO.C,JP2*%
X55912500Y-56437500D03*
X55912500Y-55137500D03*
D24*
X55912500Y-53837500D03*
%TD*%
D14*
%TO.C,D16*%
X23812500Y-94581250D03*
D15*
X23812500Y-91281250D03*
%TD*%
D22*
%TO.C,JP4*%
X53812500Y-86537500D03*
X53812500Y-85237500D03*
D24*
X53812500Y-83937500D03*
%TD*%
D14*
%TO.C,D19*%
X80962500Y-94581250D03*
D15*
X80962500Y-91281250D03*
%TD*%
D14*
%TO.C,D13*%
X61912500Y-75531250D03*
D15*
X61912500Y-72231250D03*
%TD*%
D14*
%TO.C,D24*%
X80962500Y-113631250D03*
D15*
X80962500Y-110331250D03*
%TD*%
D14*
%TO.C,D10*%
X100012500Y-56481250D03*
D15*
X100012500Y-53181250D03*
%TD*%
D14*
%TO.C,D14*%
X80962500Y-75531250D03*
D15*
X80962500Y-72231250D03*
%TD*%
D14*
%TO.C,D8*%
X61912500Y-56481250D03*
D15*
X61912500Y-53181250D03*
%TD*%
D25*
%TO.C,U1*%
X74662500Y-52477500D03*
X74662500Y-55017500D03*
X74662500Y-57557500D03*
X74662500Y-60097500D03*
X74662500Y-62637500D03*
X74662500Y-65177500D03*
X74662500Y-67717500D03*
X74662500Y-70257500D03*
X74662500Y-72797500D03*
X74662500Y-75337500D03*
X74662500Y-77877500D03*
X74662500Y-80417500D03*
X74662500Y-82957500D03*
X74662500Y-85497500D03*
X72122500Y-85497500D03*
X69582500Y-85497500D03*
X67042500Y-85497500D03*
X64502500Y-85497500D03*
X61962500Y-85497500D03*
X59422500Y-85497500D03*
X59422500Y-82957500D03*
X59422500Y-80417500D03*
X59422500Y-77877500D03*
X59422500Y-75337500D03*
X59422500Y-72797500D03*
X59422500Y-70257500D03*
X59422500Y-67717500D03*
X59422500Y-65177500D03*
X59422500Y-62637500D03*
X59422500Y-60097500D03*
X59422500Y-57557500D03*
X59422500Y-55017500D03*
X59422500Y-52477500D03*
%TD*%
D26*
%TO.C,JP1*%
X63212500Y-89137500D03*
X61912500Y-89137500D03*
D27*
X60612500Y-89137500D03*
%TD*%
D14*
%TO.C,D6*%
X23812500Y-56481250D03*
D15*
X23812500Y-53181250D03*
%TD*%
D14*
%TO.C,D25*%
X100012500Y-113631250D03*
D15*
X100012500Y-110331250D03*
%TD*%
D14*
%TO.C,D2*%
X42862500Y-37431250D03*
D15*
X42862500Y-34131250D03*
%TD*%
M02*
