M48
; DRILL file {KiCad (6.0.2)} date Mon 11 Apr 2022 13:37:00 BST
; FORMAT={-:-/ absolute / metric / decimal}
; #@! TF.CreationDate,2022-04-11T13:37:00+01:00
; #@! TF.GenerationSoftware,Kicad,Pcbnew,(6.0.2)
; #@! TF.FileFunction,Plated,1,2,PTH
FMAT,2
METRIC
; #@! TA.AperFunction,Plated,PTH,ViaDrill
T1C0.400
; #@! TA.AperFunction,Plated,PTH,ComponentDrill
T2C0.600
; #@! TA.AperFunction,Plated,PTH,ComponentDrill
T3C1.000
; #@! TA.AperFunction,Plated,PTH,ComponentDrill
T4C1.500
; #@! TA.AperFunction,Plated,PTH,ComponentDrill
T5C2.500
%
G90
G05
T1
X23.812Y-37.431
X23.812Y-91.281
X28.919Y-34.131
X29.012Y-85.638
X30.412Y-67.237
X31.412Y-53.181
X32.413Y-49.637
X32.413Y-73.438
X35.612Y-76.037
X37.212Y-113.637
X40.012Y-82.237
X40.563Y-66.237
X40.563Y-72.237
X41.212Y-91.237
X41.288Y-67.638
X42.012Y-70.237
X42.012Y-110.331
X42.055Y-88.037
X42.862Y-37.431
X42.862Y-75.531
X42.862Y-113.631
X50.962Y-31.337
X51.106Y-79.299
X51.612Y-78.037
X53.812Y-86.537
X54.012Y-85.237
X55.388Y-55.137
X55.862Y-36.788
X56.112Y-50.428
X56.412Y-83.938
X56.886Y-49.704
X57.287Y-38.438
X58.012Y-89.037
X58.337Y-38.438
X59.412Y-55.037
X59.422Y-85.498
X61.912Y-48.188
X61.912Y-113.631
X63.912Y-48.188
X64.502Y-85.498
X65.912Y-48.188
X66.612Y-67.837
X69.612Y-85.438
X69.812Y-47.038
X69.812Y-74.037
X70.962Y-36.038
X72.612Y-47.237
X72.812Y-72.237
X75.013Y-55.037
X75.412Y-30.237
X76.612Y-72.237
X77.412Y-89.237
X78.787Y-62.662
X80.962Y-37.431
X80.962Y-113.631
X89.013Y-65.237
X95.212Y-40.038
X95.212Y-113.637
X95.812Y-65.837
X100.012Y-37.431
X100.612Y-109.037
X108.737Y-110.237
X108.737Y-91.438
X111.012Y-54.237
X111.212Y-35.237
T3
X20.412Y-32.987
X20.412Y-38.987
X20.412Y-44.987
X20.412Y-50.987
X20.412Y-56.987
X20.412Y-64.362
X20.412Y-70.362
X20.412Y-76.362
X20.412Y-82.362
X20.412Y-88.362
X20.412Y-95.987
X20.412Y-101.987
X20.412Y-107.987
X20.412Y-113.987
X20.412Y-119.987
X24.787Y-29.637
X24.787Y-122.862
X30.787Y-29.637
X30.787Y-122.862
X36.788Y-29.637
X36.788Y-122.862
X42.788Y-29.637
X42.788Y-122.862
X48.787Y-29.637
X48.787Y-122.862
X78.787Y-29.637
X78.787Y-122.862
X84.787Y-29.637
X84.787Y-122.862
X90.787Y-29.637
X90.787Y-122.862
X96.787Y-29.637
X96.787Y-122.862
X102.787Y-29.637
X102.787Y-122.862
X113.662Y-32.987
X113.662Y-38.987
X113.662Y-44.987
X113.662Y-50.987
X113.662Y-56.987
X113.662Y-64.362
X113.662Y-70.362
X113.662Y-76.362
X113.662Y-82.362
X113.662Y-88.362
X113.662Y-95.987
X113.662Y-101.987
X113.662Y-107.987
X113.662Y-113.987
X113.662Y-119.987
T4
X26.337Y-43.913
X26.337Y-62.962
X26.337Y-82.013
X26.337Y-101.062
X26.337Y-120.112
X33.337Y-42.862
X33.337Y-61.912
X33.337Y-80.962
X33.337Y-100.012
X33.337Y-119.062
X45.387Y-43.913
X45.387Y-62.962
X45.387Y-82.013
X45.387Y-101.062
X45.387Y-120.112
X52.387Y-42.862
X52.387Y-61.912
X52.387Y-80.962
X52.387Y-100.012
X52.387Y-119.062
X64.438Y-43.913
X64.438Y-62.962
X64.438Y-82.013
X64.438Y-101.062
X64.438Y-120.112
X71.438Y-42.862
X71.438Y-61.912
X71.438Y-80.962
X71.438Y-100.012
X71.438Y-119.062
X83.487Y-43.913
X83.487Y-62.962
X83.487Y-82.013
X83.487Y-101.062
X83.487Y-120.112
X90.487Y-42.862
X90.487Y-61.912
X90.487Y-80.962
X90.487Y-100.012
X90.487Y-119.062
X102.537Y-43.913
X102.537Y-62.962
X102.537Y-82.013
X102.537Y-101.062
X102.537Y-120.112
X109.537Y-42.862
X109.537Y-61.912
X109.537Y-80.962
X109.537Y-100.012
X109.537Y-119.062
T5
X38.462Y-47.688
X38.462Y-104.837
X95.612Y-47.688
X95.612Y-104.837
T2
X53.992Y-29.877G85X53.992Y-30.477
G05
X53.992Y-33.807G85X53.992Y-34.907
G05
X62.633Y-29.877G85X62.633Y-30.477
G05
X62.633Y-33.807G85X62.633Y-34.907
G05
T0
M30
