%TF.GenerationSoftware,KiCad,Pcbnew,(6.0.4)*%
%TF.CreationDate,2022-05-04T18:37:34+01:00*%
%TF.ProjectId,v2,76322e6b-6963-4616-945f-706362585858,rev?*%
%TF.SameCoordinates,Original*%
%TF.FileFunction,Soldermask,Bot*%
%TF.FilePolarity,Negative*%
%FSLAX46Y46*%
G04 Gerber Fmt 4.6, Leading zero omitted, Abs format (unit mm)*
G04 Created by KiCad (PCBNEW (6.0.4)) date 2022-05-04 18:37:34*
%MOMM*%
%LPD*%
G01*
G04 APERTURE LIST*
G04 Aperture macros list*
%AMRoundRect*
0 Rectangle with rounded corners*
0 $1 Rounding radius*
0 $2 $3 $4 $5 $6 $7 $8 $9 X,Y pos of 4 corners*
0 Add a 4 corners polygon primitive as box body*
4,1,4,$2,$3,$4,$5,$6,$7,$8,$9,$2,$3,0*
0 Add four circle primitives for the rounded corners*
1,1,$1+$1,$2,$3*
1,1,$1+$1,$4,$5*
1,1,$1+$1,$6,$7*
1,1,$1+$1,$8,$9*
0 Add four rect primitives between the rounded corners*
20,1,$1+$1,$2,$3,$4,$5,0*
20,1,$1+$1,$4,$5,$6,$7,0*
20,1,$1+$1,$6,$7,$8,$9,0*
20,1,$1+$1,$8,$9,$2,$3,0*%
G04 Aperture macros list end*
%ADD10C,0.250000*%
%ADD11C,5.500000*%
%ADD12C,3.000000*%
%ADD13R,2.000000X1.000000*%
%ADD14R,1.000000X2.000000*%
%ADD15C,5.000000*%
%ADD16RoundRect,0.200000X0.400000X-0.250000X0.400000X0.250000X-0.400000X0.250000X-0.400000X-0.250000X0*%
%ADD17R,1.200000X0.900000*%
%ADD18R,0.300000X1.150000*%
%ADD19O,1.000000X1.600000*%
%ADD20O,1.000000X2.100000*%
%ADD21RoundRect,0.500000X0.000000X1.000000X0.000000X1.000000X0.000000X-1.000000X0.000000X-1.000000X0*%
%ADD22R,1.000000X3.000000*%
%ADD23RoundRect,0.200000X0.800000X0.800000X-0.800000X0.800000X-0.800000X-0.800000X0.800000X-0.800000X0*%
G04 APERTURE END LIST*
D10*
X68561309Y-66961130D02*
X67989880Y-66961130D01*
X68275595Y-67961130D02*
X68275595Y-66961130D01*
X67656547Y-67961130D02*
X67656547Y-66961130D01*
X67656547Y-67437321D02*
X67085119Y-67437321D01*
X67085119Y-67961130D02*
X67085119Y-66961130D01*
X66608928Y-67961130D02*
X66608928Y-66961130D01*
X66180357Y-67913511D02*
X66037500Y-67961130D01*
X65799404Y-67961130D01*
X65704166Y-67913511D01*
X65656547Y-67865892D01*
X65608928Y-67770654D01*
X65608928Y-67675416D01*
X65656547Y-67580178D01*
X65704166Y-67532559D01*
X65799404Y-67484940D01*
X65989880Y-67437321D01*
X66085119Y-67389702D01*
X66132738Y-67342083D01*
X66180357Y-67246845D01*
X66180357Y-67151607D01*
X66132738Y-67056369D01*
X66085119Y-67008750D01*
X65989880Y-66961130D01*
X65751785Y-66961130D01*
X65608928Y-67008750D01*
X68513690Y-69523511D02*
X68370833Y-69571130D01*
X68132738Y-69571130D01*
X68037500Y-69523511D01*
X67989880Y-69475892D01*
X67942261Y-69380654D01*
X67942261Y-69285416D01*
X67989880Y-69190178D01*
X68037500Y-69142559D01*
X68132738Y-69094940D01*
X68323214Y-69047321D01*
X68418452Y-68999702D01*
X68466071Y-68952083D01*
X68513690Y-68856845D01*
X68513690Y-68761607D01*
X68466071Y-68666369D01*
X68418452Y-68618750D01*
X68323214Y-68571130D01*
X68085119Y-68571130D01*
X67942261Y-68618750D01*
X67513690Y-69571130D02*
X67513690Y-68571130D01*
X67037500Y-69571130D02*
X67037500Y-68571130D01*
X66799404Y-68571130D01*
X66656547Y-68618750D01*
X66561309Y-68713988D01*
X66513690Y-68809226D01*
X66466071Y-68999702D01*
X66466071Y-69142559D01*
X66513690Y-69333035D01*
X66561309Y-69428273D01*
X66656547Y-69523511D01*
X66799404Y-69571130D01*
X67037500Y-69571130D01*
X66037500Y-69047321D02*
X65704166Y-69047321D01*
X65561309Y-69571130D02*
X66037500Y-69571130D01*
X66037500Y-68571130D01*
X65561309Y-68571130D01*
X68918452Y-71181130D02*
X68918452Y-70181130D01*
X68680357Y-70181130D01*
X68537500Y-70228750D01*
X68442261Y-70323988D01*
X68394642Y-70419226D01*
X68347023Y-70609702D01*
X68347023Y-70752559D01*
X68394642Y-70943035D01*
X68442261Y-71038273D01*
X68537500Y-71133511D01*
X68680357Y-71181130D01*
X68918452Y-71181130D01*
X67727976Y-70181130D02*
X67537500Y-70181130D01*
X67442261Y-70228750D01*
X67347023Y-70323988D01*
X67299404Y-70514464D01*
X67299404Y-70847797D01*
X67347023Y-71038273D01*
X67442261Y-71133511D01*
X67537500Y-71181130D01*
X67727976Y-71181130D01*
X67823214Y-71133511D01*
X67918452Y-71038273D01*
X67966071Y-70847797D01*
X67966071Y-70514464D01*
X67918452Y-70323988D01*
X67823214Y-70228750D01*
X67727976Y-70181130D01*
X66966071Y-70181130D02*
X66727976Y-71181130D01*
X66537500Y-70466845D01*
X66347023Y-71181130D01*
X66108928Y-70181130D01*
X65727976Y-71181130D02*
X65727976Y-70181130D01*
X65156547Y-71181130D01*
X65156547Y-70181130D01*
D11*
%TO.C,SW6*%
X28937500Y-57212500D03*
D12*
X24537500Y-61912500D03*
X31537500Y-62962500D03*
%TD*%
D13*
%TO.C,J1*%
X30462500Y-29137500D03*
X34462500Y-29137500D03*
X38462500Y-29137500D03*
X42462500Y-29137500D03*
X46462500Y-29137500D03*
%TD*%
D11*
%TO.C,SW4*%
X86087500Y-38162500D03*
D12*
X81687500Y-42862500D03*
X88687500Y-43912500D03*
%TD*%
D14*
%TO.C,J5*%
X19912500Y-96837500D03*
X19912500Y-100837500D03*
X19912500Y-104837500D03*
X19912500Y-108837500D03*
X19912500Y-112837500D03*
%TD*%
%TO.C,J9*%
X114162500Y-96837500D03*
X114162500Y-100837500D03*
X114162500Y-104837500D03*
X114162500Y-108837500D03*
X114162500Y-112837500D03*
%TD*%
D11*
%TO.C,SW10*%
X105137500Y-57212500D03*
D12*
X100737500Y-61912500D03*
X107737500Y-62962500D03*
%TD*%
D14*
%TO.C,J7*%
X114162500Y-39162500D03*
X114162500Y-43162500D03*
X114162500Y-47162500D03*
X114162500Y-51162500D03*
X114162500Y-55162500D03*
%TD*%
D11*
%TO.C,SW9*%
X86087500Y-57212500D03*
D12*
X81687500Y-61912500D03*
X88687500Y-62962500D03*
%TD*%
D15*
%TO.C,H4*%
X38462500Y-47687500D03*
%TD*%
%TO.C,H3*%
X95612500Y-47687500D03*
%TD*%
D11*
%TO.C,SW2*%
X47987500Y-38162500D03*
D12*
X43587500Y-42862500D03*
X50587500Y-43912500D03*
%TD*%
D13*
%TO.C,J4*%
X87612500Y-123387500D03*
X91612500Y-123387500D03*
X95612500Y-123387500D03*
X99612500Y-123387500D03*
X103612500Y-123387500D03*
%TD*%
D11*
%TO.C,SW5*%
X105137500Y-38162500D03*
D12*
X100737500Y-42862500D03*
X107737500Y-43912500D03*
%TD*%
D11*
%TO.C,SW21*%
X28937500Y-114362500D03*
D12*
X24537500Y-119062500D03*
X31537500Y-120112500D03*
%TD*%
D14*
%TO.C,J8*%
X114162500Y-67737500D03*
X114162500Y-71737500D03*
X114162500Y-75737500D03*
X114162500Y-79737500D03*
X114162500Y-83737500D03*
%TD*%
D13*
%TO.C,J3*%
X87612500Y-29137500D03*
X91612500Y-29137500D03*
X95612500Y-29137500D03*
X99612500Y-29137500D03*
X103612500Y-29137500D03*
%TD*%
D11*
%TO.C,SW22*%
X47987500Y-114362500D03*
D12*
X43587500Y-119062500D03*
X50587500Y-120112500D03*
%TD*%
D11*
%TO.C,SW13*%
X67037500Y-76262500D03*
D12*
X62637500Y-80962500D03*
X69637500Y-82012500D03*
%TD*%
D11*
%TO.C,SW1*%
X28937500Y-38162500D03*
D12*
X24537500Y-42862500D03*
X31537500Y-43912500D03*
%TD*%
D14*
%TO.C,J10*%
X19912500Y-39687500D03*
X19912500Y-43687500D03*
X19912500Y-47687500D03*
X19912500Y-51687500D03*
X19912500Y-55687500D03*
%TD*%
D11*
%TO.C,SW14*%
X86087500Y-76262500D03*
D12*
X81687500Y-80962500D03*
X88687500Y-82012500D03*
%TD*%
D11*
%TO.C,SW19*%
X86087500Y-95312500D03*
D12*
X81687500Y-100012500D03*
X88687500Y-101062500D03*
%TD*%
D11*
%TO.C,SW17*%
X47987500Y-95312500D03*
D12*
X43587500Y-100012500D03*
X50587500Y-101062500D03*
%TD*%
D15*
%TO.C,H2*%
X95612500Y-104837500D03*
%TD*%
D11*
%TO.C,SW15*%
X105137500Y-76227500D03*
D12*
X100737500Y-80927500D03*
X107737500Y-81977500D03*
%TD*%
D11*
%TO.C,SW16*%
X28937500Y-95312500D03*
D12*
X24537500Y-100012500D03*
X31537500Y-101062500D03*
%TD*%
D11*
%TO.C,SW24*%
X86087500Y-114362500D03*
D12*
X81687500Y-119062500D03*
X88687500Y-120112500D03*
%TD*%
D15*
%TO.C,H1*%
X38462500Y-104837500D03*
%TD*%
D13*
%TO.C,J2*%
X30462500Y-123387500D03*
X34462500Y-123387500D03*
X38462500Y-123387500D03*
X42462500Y-123387500D03*
X46462500Y-123387500D03*
%TD*%
D11*
%TO.C,SW20*%
X105137500Y-95312500D03*
D12*
X100737500Y-100012500D03*
X107737500Y-101062500D03*
%TD*%
D11*
%TO.C,SW23*%
X67037500Y-114362500D03*
D12*
X62637500Y-119062500D03*
X69637500Y-120112500D03*
%TD*%
D11*
%TO.C,SW18*%
X67037500Y-95312500D03*
D12*
X62637500Y-100012500D03*
X69637500Y-101062500D03*
%TD*%
D11*
%TO.C,SW3*%
X67037500Y-38162500D03*
D12*
X62637500Y-42862500D03*
X69637500Y-43912500D03*
%TD*%
D11*
%TO.C,SW25*%
X105137500Y-114362500D03*
D12*
X100737500Y-119062500D03*
X107737500Y-120112500D03*
%TD*%
D11*
%TO.C,SW7*%
X47987500Y-57212500D03*
D12*
X43587500Y-61912500D03*
X50587500Y-62962500D03*
%TD*%
D11*
%TO.C,SW11*%
X28937500Y-76262500D03*
D12*
X24537500Y-80962500D03*
X31537500Y-82012500D03*
%TD*%
D11*
%TO.C,SW12*%
X47987500Y-76262500D03*
D12*
X43587500Y-80962500D03*
X50587500Y-82012500D03*
%TD*%
D14*
%TO.C,J6*%
X19912500Y-68262500D03*
X19912500Y-72262500D03*
X19912500Y-76262500D03*
X19912500Y-80262500D03*
X19912500Y-84262500D03*
%TD*%
D11*
%TO.C,SW8*%
X67037500Y-57212500D03*
D12*
X62637500Y-61912500D03*
X69637500Y-62962500D03*
%TD*%
D16*
%TO.C,D9*%
X91802500Y-58862500D03*
D17*
X91802500Y-55562500D03*
%TD*%
D16*
%TO.C,D7*%
X53702500Y-58862500D03*
D17*
X53702500Y-55562500D03*
%TD*%
D18*
%TO.C,J11*%
X56827500Y-34922500D03*
X57627500Y-34922500D03*
X58927500Y-34922500D03*
X59927500Y-34922500D03*
X60427500Y-34922500D03*
X61427500Y-34922500D03*
X62727500Y-34922500D03*
X63527500Y-34922500D03*
X63227500Y-34922500D03*
X62427500Y-34922500D03*
X61927500Y-34922500D03*
X60927500Y-34922500D03*
X59427500Y-34922500D03*
X58427500Y-34922500D03*
X57927500Y-34922500D03*
X57127500Y-34922500D03*
D19*
X64497500Y-30177500D03*
X55857500Y-30177500D03*
D20*
X64497500Y-34357500D03*
X55857500Y-34357500D03*
%TD*%
D16*
%TO.C,D17*%
X53702500Y-96962500D03*
D17*
X53702500Y-93662500D03*
%TD*%
D16*
%TO.C,D11*%
X34652500Y-77912500D03*
D17*
X34652500Y-74612500D03*
%TD*%
D16*
%TO.C,D22*%
X53702500Y-116012500D03*
D17*
X53702500Y-112712500D03*
%TD*%
D16*
%TO.C,D5*%
X110852500Y-39812500D03*
D17*
X110852500Y-36512500D03*
%TD*%
D16*
%TO.C,D1*%
X34652500Y-39812500D03*
D17*
X34652500Y-36512500D03*
%TD*%
D16*
%TO.C,D21*%
X34652500Y-116012500D03*
D17*
X34652500Y-112712500D03*
%TD*%
D16*
%TO.C,D12*%
X53702500Y-77912500D03*
D17*
X53702500Y-74612500D03*
%TD*%
D16*
%TO.C,D20*%
X110852500Y-96962500D03*
D17*
X110852500Y-93662500D03*
%TD*%
D16*
%TO.C,D3*%
X72752500Y-39812500D03*
D17*
X72752500Y-36512500D03*
%TD*%
D16*
%TO.C,D15*%
X110852500Y-77912500D03*
D17*
X110852500Y-74612500D03*
%TD*%
D16*
%TO.C,D23*%
X72752500Y-116012500D03*
D17*
X72752500Y-112712500D03*
%TD*%
D16*
%TO.C,D18*%
X72752500Y-96962500D03*
D17*
X72752500Y-93662500D03*
%TD*%
D16*
%TO.C,D4*%
X91802500Y-39812500D03*
D17*
X91802500Y-36512500D03*
%TD*%
D16*
%TO.C,D16*%
X34652500Y-96962500D03*
D17*
X34652500Y-93662500D03*
%TD*%
D16*
%TO.C,D19*%
X91802500Y-96962500D03*
D17*
X91802500Y-93662500D03*
%TD*%
D16*
%TO.C,D13*%
X71812500Y-78487500D03*
D17*
X71812500Y-75187500D03*
%TD*%
D16*
%TO.C,D24*%
X91802500Y-116012500D03*
D17*
X91802500Y-112712500D03*
%TD*%
D16*
%TO.C,D10*%
X110852500Y-58607500D03*
D17*
X110852500Y-55307500D03*
%TD*%
D21*
%TO.C,J12*%
X65412500Y-47637500D03*
D22*
X67412500Y-47637500D03*
%TD*%
D16*
%TO.C,D14*%
X91802500Y-77912500D03*
D17*
X91802500Y-74612500D03*
%TD*%
D16*
%TO.C,D8*%
X71612500Y-60037500D03*
D17*
X71612500Y-56737500D03*
%TD*%
D23*
%TO.C,U1*%
X74662500Y-52477500D03*
X74662500Y-55017500D03*
X74662500Y-60097500D03*
X74662500Y-62637500D03*
X74662500Y-65177500D03*
X74662500Y-67717500D03*
X74662500Y-70257500D03*
X74662500Y-72797500D03*
X74662500Y-75337500D03*
X74662500Y-77877500D03*
X74662500Y-80417500D03*
X74662500Y-82957500D03*
X69582500Y-85497500D03*
X67042500Y-85497500D03*
X59422500Y-85497500D03*
X59422500Y-82957500D03*
X59422500Y-80417500D03*
X59422500Y-77877500D03*
X59422500Y-75337500D03*
X59422500Y-72797500D03*
X59422500Y-70257500D03*
X59422500Y-67717500D03*
X59422500Y-65177500D03*
X59422500Y-62637500D03*
X59422500Y-60097500D03*
X59422500Y-55017500D03*
X59422500Y-52477500D03*
%TD*%
D16*
%TO.C,D6*%
X34652500Y-58862500D03*
D17*
X34652500Y-55562500D03*
%TD*%
D16*
%TO.C,D25*%
X110852500Y-116012500D03*
D17*
X110852500Y-112712500D03*
%TD*%
D16*
%TO.C,D2*%
X53702500Y-39812500D03*
D17*
X53702500Y-36512500D03*
%TD*%
M02*
