%TF.GenerationSoftware,KiCad,Pcbnew,(6.0.4)*%
%TF.CreationDate,2022-05-04T18:37:34+01:00*%
%TF.ProjectId,v2,76322e6b-6963-4616-945f-706362585858,rev?*%
%TF.SameCoordinates,Original*%
%TF.FileFunction,Soldermask,Top*%
%TF.FilePolarity,Negative*%
%FSLAX46Y46*%
G04 Gerber Fmt 4.6, Leading zero omitted, Abs format (unit mm)*
G04 Created by KiCad (PCBNEW (6.0.4)) date 2022-05-04 18:37:34*
%MOMM*%
%LPD*%
G01*
G04 APERTURE LIST*
G04 Aperture macros list*
%AMRoundRect*
0 Rectangle with rounded corners*
0 $1 Rounding radius*
0 $2 $3 $4 $5 $6 $7 $8 $9 X,Y pos of 4 corners*
0 Add a 4 corners polygon primitive as box body*
4,1,4,$2,$3,$4,$5,$6,$7,$8,$9,$2,$3,0*
0 Add four circle primitives for the rounded corners*
1,1,$1+$1,$2,$3*
1,1,$1+$1,$4,$5*
1,1,$1+$1,$6,$7*
1,1,$1+$1,$8,$9*
0 Add four rect primitives between the rounded corners*
20,1,$1+$1,$2,$3,$4,$5,0*
20,1,$1+$1,$4,$5,$6,$7,0*
20,1,$1+$1,$6,$7,$8,$9,0*
20,1,$1+$1,$8,$9,$2,$3,0*%
G04 Aperture macros list end*
%ADD10C,5.500000*%
%ADD11C,3.000000*%
%ADD12R,2.000000X1.000000*%
%ADD13R,1.000000X2.000000*%
%ADD14C,5.000000*%
%ADD15O,1.000000X1.600000*%
%ADD16O,1.000000X2.100000*%
%ADD17RoundRect,0.200000X0.800000X0.800000X-0.800000X0.800000X-0.800000X-0.800000X0.800000X-0.800000X0*%
G04 APERTURE END LIST*
D10*
%TO.C,SW6*%
X28937500Y-57212500D03*
D11*
X24537500Y-61912500D03*
X31537500Y-62962500D03*
%TD*%
D12*
%TO.C,J1*%
X30462500Y-29137500D03*
X34462500Y-29137500D03*
X38462500Y-29137500D03*
X42462500Y-29137500D03*
X46462500Y-29137500D03*
%TD*%
D10*
%TO.C,SW4*%
X86087500Y-38162500D03*
D11*
X81687500Y-42862500D03*
X88687500Y-43912500D03*
%TD*%
D13*
%TO.C,J5*%
X19912500Y-96837500D03*
X19912500Y-100837500D03*
X19912500Y-104837500D03*
X19912500Y-108837500D03*
X19912500Y-112837500D03*
%TD*%
%TO.C,J9*%
X114162500Y-96837500D03*
X114162500Y-100837500D03*
X114162500Y-104837500D03*
X114162500Y-108837500D03*
X114162500Y-112837500D03*
%TD*%
D10*
%TO.C,SW10*%
X105137500Y-57212500D03*
D11*
X100737500Y-61912500D03*
X107737500Y-62962500D03*
%TD*%
D13*
%TO.C,J7*%
X114162500Y-39162500D03*
X114162500Y-43162500D03*
X114162500Y-47162500D03*
X114162500Y-51162500D03*
X114162500Y-55162500D03*
%TD*%
D10*
%TO.C,SW9*%
X86087500Y-57212500D03*
D11*
X81687500Y-61912500D03*
X88687500Y-62962500D03*
%TD*%
D14*
%TO.C,H4*%
X38462500Y-47687500D03*
%TD*%
%TO.C,H3*%
X95612500Y-47687500D03*
%TD*%
D10*
%TO.C,SW2*%
X47987500Y-38162500D03*
D11*
X43587500Y-42862500D03*
X50587500Y-43912500D03*
%TD*%
D12*
%TO.C,J4*%
X87612500Y-123387500D03*
X91612500Y-123387500D03*
X95612500Y-123387500D03*
X99612500Y-123387500D03*
X103612500Y-123387500D03*
%TD*%
D10*
%TO.C,SW5*%
X105137500Y-38162500D03*
D11*
X100737500Y-42862500D03*
X107737500Y-43912500D03*
%TD*%
D10*
%TO.C,SW21*%
X28937500Y-114362500D03*
D11*
X24537500Y-119062500D03*
X31537500Y-120112500D03*
%TD*%
D13*
%TO.C,J8*%
X114162500Y-67737500D03*
X114162500Y-71737500D03*
X114162500Y-75737500D03*
X114162500Y-79737500D03*
X114162500Y-83737500D03*
%TD*%
D12*
%TO.C,J3*%
X87612500Y-29137500D03*
X91612500Y-29137500D03*
X95612500Y-29137500D03*
X99612500Y-29137500D03*
X103612500Y-29137500D03*
%TD*%
D10*
%TO.C,SW22*%
X47987500Y-114362500D03*
D11*
X43587500Y-119062500D03*
X50587500Y-120112500D03*
%TD*%
D10*
%TO.C,SW13*%
X67037500Y-76262500D03*
D11*
X62637500Y-80962500D03*
X69637500Y-82012500D03*
%TD*%
D10*
%TO.C,SW1*%
X28937500Y-38162500D03*
D11*
X24537500Y-42862500D03*
X31537500Y-43912500D03*
%TD*%
D13*
%TO.C,J10*%
X19912500Y-39687500D03*
X19912500Y-43687500D03*
X19912500Y-47687500D03*
X19912500Y-51687500D03*
X19912500Y-55687500D03*
%TD*%
D10*
%TO.C,SW14*%
X86087500Y-76262500D03*
D11*
X81687500Y-80962500D03*
X88687500Y-82012500D03*
%TD*%
D10*
%TO.C,SW19*%
X86087500Y-95312500D03*
D11*
X81687500Y-100012500D03*
X88687500Y-101062500D03*
%TD*%
D10*
%TO.C,SW17*%
X47987500Y-95312500D03*
D11*
X43587500Y-100012500D03*
X50587500Y-101062500D03*
%TD*%
D14*
%TO.C,H2*%
X95612500Y-104837500D03*
%TD*%
D10*
%TO.C,SW15*%
X105137500Y-76227500D03*
D11*
X100737500Y-80927500D03*
X107737500Y-81977500D03*
%TD*%
D10*
%TO.C,SW16*%
X28937500Y-95312500D03*
D11*
X24537500Y-100012500D03*
X31537500Y-101062500D03*
%TD*%
D10*
%TO.C,SW24*%
X86087500Y-114362500D03*
D11*
X81687500Y-119062500D03*
X88687500Y-120112500D03*
%TD*%
D14*
%TO.C,H1*%
X38462500Y-104837500D03*
%TD*%
D12*
%TO.C,J2*%
X30462500Y-123387500D03*
X34462500Y-123387500D03*
X38462500Y-123387500D03*
X42462500Y-123387500D03*
X46462500Y-123387500D03*
%TD*%
D10*
%TO.C,SW20*%
X105137500Y-95312500D03*
D11*
X100737500Y-100012500D03*
X107737500Y-101062500D03*
%TD*%
D10*
%TO.C,SW23*%
X67037500Y-114362500D03*
D11*
X62637500Y-119062500D03*
X69637500Y-120112500D03*
%TD*%
D10*
%TO.C,SW18*%
X67037500Y-95312500D03*
D11*
X62637500Y-100012500D03*
X69637500Y-101062500D03*
%TD*%
D10*
%TO.C,SW3*%
X67037500Y-38162500D03*
D11*
X62637500Y-42862500D03*
X69637500Y-43912500D03*
%TD*%
D10*
%TO.C,SW25*%
X105137500Y-114362500D03*
D11*
X100737500Y-119062500D03*
X107737500Y-120112500D03*
%TD*%
D10*
%TO.C,SW7*%
X47987500Y-57212500D03*
D11*
X43587500Y-61912500D03*
X50587500Y-62962500D03*
%TD*%
D10*
%TO.C,SW11*%
X28937500Y-76262500D03*
D11*
X24537500Y-80962500D03*
X31537500Y-82012500D03*
%TD*%
D10*
%TO.C,SW12*%
X47987500Y-76262500D03*
D11*
X43587500Y-80962500D03*
X50587500Y-82012500D03*
%TD*%
D13*
%TO.C,J6*%
X19912500Y-68262500D03*
X19912500Y-72262500D03*
X19912500Y-76262500D03*
X19912500Y-80262500D03*
X19912500Y-84262500D03*
%TD*%
D10*
%TO.C,SW8*%
X67037500Y-57212500D03*
D11*
X62637500Y-61912500D03*
X69637500Y-62962500D03*
%TD*%
D15*
%TO.C,J11*%
X64497500Y-30177500D03*
X55857500Y-30177500D03*
D16*
X64497500Y-34357500D03*
X55857500Y-34357500D03*
%TD*%
D17*
%TO.C,U1*%
X74662500Y-52477500D03*
X74662500Y-55017500D03*
X74662500Y-60097500D03*
X74662500Y-62637500D03*
X74662500Y-65177500D03*
X74662500Y-67717500D03*
X74662500Y-70257500D03*
X74662500Y-72797500D03*
X74662500Y-75337500D03*
X74662500Y-77877500D03*
X74662500Y-80417500D03*
X74662500Y-82957500D03*
X69582500Y-85497500D03*
X67042500Y-85497500D03*
X59422500Y-85497500D03*
X59422500Y-82957500D03*
X59422500Y-80417500D03*
X59422500Y-77877500D03*
X59422500Y-75337500D03*
X59422500Y-72797500D03*
X59422500Y-70257500D03*
X59422500Y-67717500D03*
X59422500Y-65177500D03*
X59422500Y-62637500D03*
X59422500Y-60097500D03*
X59422500Y-55017500D03*
X59422500Y-52477500D03*
%TD*%
M02*
