M48
; DRILL file {KiCad (6.0.4)} date Wed 04 May 2022 18:37:27 BST
; FORMAT={-:-/ absolute / metric / decimal}
; #@! TF.CreationDate,2022-05-04T18:37:27+01:00
; #@! TF.GenerationSoftware,Kicad,Pcbnew,(6.0.4)
; #@! TF.FileFunction,NonPlated,1,2,NPTH
FMAT,2
METRIC
; #@! TA.AperFunction,NonPlated,NPTH,ComponentDrill
T1C5.000
%
G90
G05
T1
X28.938Y-38.163
X28.938Y-57.212
X28.938Y-76.263
X28.938Y-95.312
X28.938Y-114.362
X47.987Y-38.163
X47.987Y-57.212
X47.987Y-76.263
X47.987Y-95.312
X47.987Y-114.362
X67.037Y-38.163
X67.037Y-57.212
X67.037Y-76.263
X67.037Y-95.312
X67.037Y-114.362
X86.087Y-38.163
X86.087Y-57.212
X86.087Y-76.263
X86.087Y-95.312
X86.087Y-114.362
X105.137Y-38.163
X105.137Y-57.212
X105.137Y-76.227
X105.137Y-95.312
X105.137Y-114.362
T0
M30
