M48
; DRILL file {KiCad (6.0.4)} date Wed 04 May 2022 18:37:27 BST
; FORMAT={-:-/ absolute / metric / decimal}
; #@! TF.CreationDate,2022-05-04T18:37:27+01:00
; #@! TF.GenerationSoftware,Kicad,Pcbnew,(6.0.4)
; #@! TF.FileFunction,Plated,1,2,PTH
FMAT,2
METRIC
; #@! TA.AperFunction,Plated,PTH,ViaDrill
T1C0.400
; #@! TA.AperFunction,Plated,PTH,ComponentDrill
T2C0.500
; #@! TA.AperFunction,Plated,PTH,ComponentDrill
T3C0.600
; #@! TA.AperFunction,Plated,PTH,ComponentDrill
T4C1.000
; #@! TA.AperFunction,Plated,PTH,ComponentDrill
T5C1.500
; #@! TA.AperFunction,Plated,PTH,ComponentDrill
T6C2.500
%
G90
G05
T1
X21.412Y-72.438
X22.613Y-72.037
X23.012Y-111.438
X31.012Y-34.438
X33.087Y-54.237
X34.536Y-67.638
X34.612Y-73.438
X35.413Y-70.237
X38.413Y-96.037
X39.012Y-62.438
X39.212Y-40.837
X39.812Y-84.837
X48.212Y-104.237
X53.012Y-32.237
X53.012Y-83.638
X53.737Y-36.512
X53.737Y-55.637
X53.737Y-73.347
X57.612Y-31.3
X57.753Y-33.829
X65.212Y-61.837
X65.412Y-60.637
X68.612Y-105.837
X71.812Y-65.037
X71.812Y-74.037
X74.612Y-46.837
X75.838Y-33.837
X77.737Y-33.637
X88.412Y-104.438
X107.412Y-107.438
X110.812Y-92.638
X110.852Y-111.528
X111.612Y-56.237
X112.012Y-37.637
T2
X19.912Y-39.688
X19.912Y-43.688
X19.912Y-47.688
X19.912Y-51.688
X19.912Y-55.688
X19.912Y-68.263
X19.912Y-72.263
X19.912Y-76.263
X19.912Y-80.263
X19.912Y-84.263
X19.912Y-96.837
X19.912Y-100.837
X19.912Y-104.837
X19.912Y-108.837
X19.912Y-112.837
X30.462Y-29.137
X30.462Y-123.387
X34.462Y-29.137
X34.462Y-123.387
X38.462Y-29.137
X38.462Y-123.387
X42.462Y-29.137
X42.462Y-123.387
X46.462Y-29.137
X46.462Y-123.387
X87.612Y-29.137
X87.612Y-123.387
X91.612Y-29.137
X91.612Y-123.387
X95.612Y-29.137
X95.612Y-123.387
X99.612Y-29.137
X99.612Y-123.387
X103.612Y-29.137
X103.612Y-123.387
X114.162Y-39.163
X114.162Y-43.163
X114.162Y-47.162
X114.162Y-51.162
X114.162Y-55.162
X114.162Y-67.737
X114.162Y-71.737
X114.162Y-75.737
X114.162Y-79.737
X114.162Y-83.737
X114.162Y-96.837
X114.162Y-100.837
X114.162Y-104.837
X114.162Y-108.837
X114.162Y-112.837
T4
X59.422Y-52.477
X59.422Y-55.017
X59.422Y-60.097
X59.422Y-62.637
X59.422Y-65.177
X59.422Y-67.718
X59.422Y-70.257
X59.422Y-72.797
X59.422Y-75.337
X59.422Y-77.877
X59.422Y-80.417
X59.422Y-82.957
X59.422Y-85.498
X67.043Y-85.498
X69.582Y-85.498
X74.662Y-52.477
X74.662Y-55.017
X74.662Y-60.097
X74.662Y-62.637
X74.662Y-65.177
X74.662Y-67.718
X74.662Y-70.257
X74.662Y-72.797
X74.662Y-75.337
X74.662Y-77.877
X74.662Y-80.417
X74.662Y-82.957
T5
X24.537Y-42.862
X24.537Y-61.912
X24.537Y-80.962
X24.537Y-100.012
X24.537Y-119.062
X31.537Y-43.913
X31.537Y-62.962
X31.537Y-82.013
X31.537Y-101.062
X31.537Y-120.112
X43.587Y-42.862
X43.587Y-61.912
X43.587Y-80.962
X43.587Y-100.012
X43.587Y-119.062
X50.587Y-43.913
X50.587Y-62.962
X50.587Y-82.013
X50.587Y-101.062
X50.587Y-120.112
X62.637Y-42.862
X62.637Y-61.912
X62.637Y-80.962
X62.637Y-100.012
X62.637Y-119.062
X69.638Y-43.913
X69.638Y-62.962
X69.638Y-82.013
X69.638Y-101.062
X69.638Y-120.112
X81.688Y-42.862
X81.688Y-61.912
X81.688Y-80.962
X81.688Y-100.012
X81.688Y-119.062
X88.688Y-43.913
X88.688Y-62.962
X88.688Y-82.013
X88.688Y-101.062
X88.688Y-120.112
X100.737Y-42.862
X100.737Y-61.912
X100.737Y-80.927
X100.737Y-100.012
X100.737Y-119.062
X107.737Y-43.913
X107.737Y-62.962
X107.737Y-81.977
X107.737Y-101.062
X107.737Y-120.112
T6
X38.462Y-47.688
X38.462Y-104.837
X95.612Y-47.688
X95.612Y-104.837
T3
X55.857Y-29.877G85X55.857Y-30.477
G05
X55.857Y-33.807G85X55.857Y-34.907
G05
X64.498Y-29.877G85X64.498Y-30.477
G05
X64.498Y-33.807G85X64.498Y-34.907
G05
T0
M30
